<svg width="169" height="27" viewBox="0 0 169 27" fill="none" xmlns="http://www.w3.org/2000/svg">
<path d="M0.93031 25.46L3.09031 24.92V1.88L0.93031 1.34V0.799998H10.4703C14.5503 0.799998 17.4903 1.424 19.2903 2.672C21.0903 3.896 21.9903 5.612 21.9903 7.82C21.9903 9.308 21.5943 10.52 20.8023 11.456C20.0103 12.368 18.9903 13.052 17.7423 13.508C16.4223 14.012 15.0183 14.276 13.5303 14.3V14.48C14.4183 14.528 15.1983 14.66 15.8703 14.876C17.5503 15.404 18.6903 16.352 19.2903 17.72L22.5303 24.92L24.3303 25.46V26H19.2903C17.3223 26 15.8823 24.98 14.9703 22.94L11.3703 14.84H9.03031V24.92L11.5503 25.46V26H0.93031V25.46ZM10.4703 13.94C12.1503 13.94 13.4703 13.412 14.4303 12.356C15.3903 11.3 15.8703 9.788 15.8703 7.82C15.8703 5.852 15.3903 4.34 14.4303 3.284C13.4703 2.228 12.1503 1.7 10.4703 1.7H9.03031V13.94H10.4703ZM34.9573 26.54C33.2533 26.54 31.6573 26.156 30.1693 25.388C29.4973 25.052 28.9333 24.656 28.4773 24.2C28.1413 24.752 27.7213 25.244 27.2173 25.676C26.7853 25.988 26.5453 26.156 26.4973 26.18H25.5973V19.34H27.0373C27.3973 20.516 27.9013 21.572 28.5493 22.508C30.0133 24.596 31.9093 25.64 34.2373 25.64C35.6053 25.64 36.6973 25.232 37.5133 24.416C38.3293 23.6 38.7373 22.508 38.7373 21.14C38.7373 20.348 38.4973 19.64 38.0173 19.016C37.5613 18.392 36.9853 17.84 36.2893 17.36C35.5933 16.88 34.6213 16.28 33.3733 15.56C31.7893 14.672 30.5053 13.868 29.5213 13.148C28.5373 12.428 27.6973 11.528 27.0013 10.448C26.3053 9.344 25.9573 8.048 25.9573 6.56C25.9573 5.384 26.2813 4.328 26.9293 3.392C27.6013 2.432 28.5973 1.676 29.9173 1.124C31.2373 0.547999 32.8573 0.259999 34.7773 0.259999C36.1693 0.259999 37.5613 0.655999 38.9533 1.448C39.4813 1.736 40.0093 2.12 40.5373 2.6C40.9453 1.976 41.3653 1.484 41.7973 1.124C42.2293 0.811998 42.4693 0.643998 42.5173 0.619998H43.4173V7.46H41.9773C41.6653 6.308 41.1973 5.264 40.5733 4.328C39.9973 3.416 39.2773 2.66 38.4133 2.06C37.5733 1.46 36.6013 1.16 35.4973 1.16C34.5613 1.16 33.7573 1.532 33.0853 2.276C32.4133 3.02 32.0773 3.968 32.0773 5.12C32.0773 6.008 32.3293 6.812 32.8333 7.532C33.3613 8.228 33.9973 8.84 34.7413 9.368C35.5093 9.896 36.5413 10.532 37.8373 11.276C39.3493 12.14 40.5733 12.908 41.5093 13.58C42.4453 14.252 43.2373 15.092 43.8853 16.1C44.5333 17.084 44.8573 18.224 44.8573 19.52C44.8573 20.816 44.4853 22.004 43.7413 23.084C42.9973 24.14 41.8813 24.98 40.3933 25.604C38.9053 26.228 37.0933 26.54 34.9573 26.54ZM59.9675 26.54C56.4155 26.54 53.7275 25.712 51.9035 24.056C50.0795 22.376 49.1675 20.024 49.1675 17V1.88L47.0075 1.34V0.799998H57.2675V1.34L55.1075 1.88V17C55.1075 20.096 55.5875 22.316 56.5475 23.66C57.5075 24.98 58.8875 25.64 60.6875 25.64C61.7915 25.64 62.8355 25.292 63.8195 24.596C64.8275 23.876 65.6315 22.868 66.2315 21.572C66.8555 20.252 67.1675 18.728 67.1675 17V2.42L64.2875 1.34V0.799998H71.1275V1.34L68.2475 2.42V17C68.2475 18.944 67.8875 20.636 67.1675 22.076C66.4475 23.516 65.4635 24.62 64.2155 25.388C62.9675 26.156 61.5515 26.54 59.9675 26.54ZM73.1061 25.46L75.2661 24.92V1.88L73.1061 1.34V0.799998H82.2861C86.5821 0.799998 89.8701 1.904 92.1501 4.112C94.4541 6.32 95.6061 9.416 95.6061 13.4C95.6061 17.384 94.4541 20.48 92.1501 22.688C89.8701 24.896 86.5821 26 82.2861 26H73.1061V25.46ZM82.2861 25.1C84.5181 25.1 86.2461 24.2 87.4701 22.4C88.6941 20.576 89.3061 17.576 89.3061 13.4C89.3061 9.224 88.6941 6.236 87.4701 4.436C86.2461 2.612 84.5181 1.7 82.2861 1.7H81.2061V25.1H82.2861ZM108.93 25.46L111.09 24.92V1.88L108.93 1.34V0.799998H119.01C122.994 0.799998 125.85 1.46 127.578 2.78C129.306 4.076 130.17 5.996 130.17 8.54C130.17 11.084 129.306 13.016 127.578 14.336C125.85 15.632 122.994 16.28 119.01 16.28H117.03V24.92L119.19 25.46V26H108.93V25.46ZM119.01 15.38C120.522 15.38 121.734 14.804 122.646 13.652C123.582 12.5 124.05 10.796 124.05 8.54C124.05 6.308 123.582 4.616 122.646 3.464C121.734 2.288 120.522 1.7 119.01 1.7H117.03V15.38H119.01ZM134.497 26.54C132.289 26.54 130.621 26.156 129.493 25.388C128.389 24.62 127.837 23.684 127.837 22.58C127.837 21.764 128.077 21.116 128.557 20.636C129.061 20.132 129.721 19.88 130.537 19.88C130.729 19.88 130.921 19.904 131.113 19.952C131.305 19.976 131.437 19.988 131.509 19.988L131.977 20.06V25.46C132.145 25.556 132.313 25.616 132.481 25.64C132.889 25.76 133.321 25.82 133.777 25.82C136.657 25.82 138.097 23.48 138.097 18.8V1.88L135.937 1.34V0.799998H146.197V1.34L144.037 1.88V18.8C144.037 21.296 143.257 23.216 141.697 24.56C140.137 25.88 137.737 26.54 134.497 26.54ZM158.25 26.54C156.546 26.54 154.95 26.156 153.462 25.388C152.79 25.052 152.226 24.656 151.77 24.2C151.434 24.752 151.014 25.244 150.51 25.676C150.078 25.988 149.838 26.156 149.79 26.18H148.89V19.34H150.33C150.69 20.516 151.194 21.572 151.842 22.508C153.306 24.596 155.202 25.64 157.53 25.64C158.898 25.64 159.99 25.232 160.806 24.416C161.622 23.6 162.03 22.508 162.03 21.14C162.03 20.348 161.79 19.64 161.31 19.016C160.854 18.392 160.278 17.84 159.582 17.36C158.886 16.88 157.914 16.28 156.666 15.56C155.082 14.672 153.798 13.868 152.814 13.148C151.83 12.428 150.99 11.528 150.294 10.448C149.598 9.344 149.25 8.048 149.25 6.56C149.25 5.384 149.574 4.328 150.222 3.392C150.894 2.432 151.89 1.676 153.21 1.124C154.53 0.547999 156.15 0.259999 158.07 0.259999C159.462 0.259999 160.854 0.655999 162.246 1.448C162.774 1.736 163.302 2.12 163.83 2.6C164.238 1.976 164.658 1.484 165.09 1.124C165.522 0.811998 165.762 0.643998 165.81 0.619998H166.71V7.46H165.27C164.958 6.308 164.49 5.264 163.866 4.328C163.29 3.416 162.57 2.66 161.706 2.06C160.866 1.46 159.894 1.16 158.79 1.16C157.854 1.16 157.05 1.532 156.378 2.276C155.706 3.02 155.37 3.968 155.37 5.12C155.37 6.008 155.622 6.812 156.126 7.532C156.654 8.228 157.29 8.84 158.034 9.368C158.802 9.896 159.834 10.532 161.13 11.276C162.642 12.14 163.866 12.908 164.802 13.58C165.738 14.252 166.53 15.092 167.178 16.1C167.826 17.084 168.15 18.224 168.15 19.52C168.15 20.816 167.778 22.004 167.034 23.084C166.29 24.14 165.174 24.98 163.686 25.604C162.198 26.228 160.386 26.54 158.25 26.54Z" fill="#BFD2F8"/>
</svg>
