<svg width="26" height="24" viewBox="0 0 26 24" fill="none" xmlns="http://www.w3.org/2000/svg">
<path d="M18.3561 8.31375C18.2463 8.04406 18.0782 7.79917 17.8626 7.59486C17.647 7.39055 17.3887 7.23134 17.1043 7.1275C16.7127 6.98991 16.299 6.91718 15.8814 6.9125C15.187 6.8825 14.9788 6.875 13.2197 6.875C11.4605 6.875 11.2523 6.8825 10.5579 6.9125C10.1398 6.91704 9.72575 6.98976 9.33371 7.1275C9.04941 7.23163 8.79126 7.39109 8.57588 7.59562C8.3605 7.80015 8.19267 8.0452 8.0832 8.315C7.93815 8.68649 7.86149 9.07887 7.85655 9.475C7.82493 10.1337 7.81702 10.3312 7.81702 12C7.81702 13.6687 7.82493 13.8662 7.85655 14.525C7.86134 14.9215 7.93801 15.3144 8.0832 15.6862C8.19297 15.9559 8.36107 16.2008 8.57668 16.4051C8.79229 16.6094 9.05062 16.7687 9.33503 16.8725C9.72665 17.0101 10.1403 17.0828 10.5579 17.0875C11.2523 17.1175 11.4605 17.1237 13.2197 17.1237C14.9788 17.1237 15.187 17.1175 15.8814 17.0862C16.2994 17.0821 16.7135 17.0098 17.1056 16.8725C17.3899 16.7684 17.6481 16.6089 17.8634 16.4044C18.0788 16.1999 18.2466 15.9548 18.3561 15.685C18.5012 15.3135 18.5778 14.9211 18.5828 14.525C18.6144 13.8662 18.621 13.6687 18.621 12C18.621 10.3312 18.6144 10.1337 18.5814 9.475C18.5771 9.07852 18.5009 8.68571 18.3561 8.31375V8.31375ZM13.2197 15.21C12.5504 15.21 11.8961 15.0217 11.3397 14.669C10.7832 14.3163 10.3495 13.815 10.0933 13.2284C9.83723 12.6419 9.77021 11.9964 9.90078 11.3738C10.0314 10.7511 10.3536 10.1791 10.8269 9.73019C11.3001 9.28126 11.9031 8.97554 12.5595 8.85168C13.2159 8.72782 13.8963 8.79139 14.5146 9.03435C15.1329 9.2773 15.6614 9.68874 16.0333 10.2166C16.4051 10.7445 16.6036 11.3651 16.6036 12C16.6036 12.8513 16.247 13.6678 15.6124 14.2698C14.9778 14.8718 14.1171 15.21 13.2197 15.21ZM16.7366 9.41375C16.5803 9.41375 16.4274 9.36976 16.2974 9.28735C16.1674 9.20494 16.066 9.08781 16.0062 8.95076C15.9464 8.81372 15.9307 8.66292 15.9612 8.51743C15.9917 8.37194 16.067 8.23831 16.1776 8.13342C16.2882 8.02853 16.429 7.9571 16.5824 7.92816C16.7358 7.89922 16.8947 7.91407 17.0392 7.97084C17.1837 8.0276 17.3071 8.12373 17.394 8.24707C17.4809 8.37041 17.5273 8.51541 17.5273 8.66375C17.5273 8.86266 17.444 9.05343 17.2957 9.19408C17.1474 9.33473 16.9463 9.41375 16.7366 9.41375V9.41375ZM15.4163 12C15.4163 12.4121 15.2875 12.815 15.0461 13.1577C14.8047 13.5003 14.4617 13.7674 14.0603 13.9251C13.6589 14.0828 13.2172 14.1241 12.7911 14.0437C12.365 13.9633 11.9736 13.7648 11.6664 13.4734C11.3592 13.182 11.15 12.8107 11.0652 12.4065C10.9805 12.0023 11.024 11.5833 11.1902 11.2026C11.3565 10.8218 11.638 10.4964 11.9993 10.2674C12.3605 10.0385 12.7852 9.91625 13.2197 9.91625C13.8022 9.91625 14.361 10.1358 14.7729 10.5266C15.1849 10.9173 15.4163 11.4474 15.4163 12V12ZM13.2197 0C10.7177 0 8.27195 0.703788 6.19165 2.02236C4.11136 3.34094 2.48997 5.21508 1.53252 7.4078C0.575061 9.60051 0.324548 12.0133 0.812653 14.3411C1.30076 16.6689 2.50556 18.807 4.27471 20.4853C6.04385 22.1635 8.29788 23.3064 10.7518 23.7694C13.2056 24.2324 15.7491 23.9948 18.0606 23.0866C20.3721 22.1783 22.3478 20.6402 23.7378 18.6668C25.1278 16.6935 25.8697 14.3734 25.8697 12C25.8697 8.8174 24.537 5.76515 22.1646 3.51472C19.7923 1.26428 16.5747 0 13.2197 0V0ZM19.7687 14.5762C19.7575 15.0949 19.6537 15.608 19.4617 16.0937C19.2925 16.5088 19.0337 16.8858 18.7019 17.2005C18.3702 17.5152 17.9728 17.7607 17.5352 17.9212C17.0236 18.1033 16.4831 18.2018 15.9368 18.2125C15.2331 18.2425 15.0091 18.25 13.2197 18.25C11.4302 18.25 11.2062 18.2425 10.5025 18.2125C9.95621 18.2018 9.41576 18.1033 8.90414 17.9212C8.46655 17.7607 8.06915 17.5152 7.7374 17.2005C7.40565 16.8858 7.14686 16.5088 6.97764 16.0937C6.78573 15.6084 6.68191 15.0957 6.67061 14.5775C6.63898 13.91 6.63108 13.6975 6.63108 12C6.63108 10.3025 6.63898 10.09 6.67061 9.4225C6.68149 8.90433 6.78486 8.39165 6.97632 7.90625C7.14554 7.4908 7.40445 7.1135 7.73645 6.79856C8.06844 6.48363 8.46618 6.23802 8.90414 6.0775C9.41584 5.89588 9.95629 5.79782 10.5025 5.7875C11.2062 5.7575 11.4302 5.75 13.2197 5.75C15.0091 5.75 15.2331 5.7575 15.9368 5.7875C16.483 5.79782 17.0235 5.89588 17.5352 6.0775C17.9729 6.23817 18.3704 6.48384 18.7021 6.79877C19.0339 7.1137 19.2926 7.49092 19.4617 7.90625C19.6536 8.39158 19.7574 8.90426 19.7687 9.4225C19.8003 10.09 19.8082 10.3025 19.8082 12C19.8082 13.6975 19.8003 13.91 19.7687 14.5775V14.5762Z" fill="#BFD2F8"/>
</svg>
