<svg width="27" height="24" viewBox="0 0 27 24" fill="none" xmlns="http://www.w3.org/2000/svg">
<path d="M13.4523 0C6.46579 0 0.802246 5.3725 0.802246 12C0.802246 18.6275 6.46579 24 13.4523 24C20.4389 24 26.1024 18.6275 26.1024 12C26.1024 5.3725 20.4389 0 13.4523 0ZM10.3557 16.9738H7.79405V9.15375H10.3557V16.9738ZM9.05905 8.19375C8.24998 8.19375 7.72684 7.65 7.72684 6.9775C7.72684 6.29125 8.26579 5.76375 9.092 5.76375C9.91821 5.76375 10.4242 6.29125 10.44 6.9775C10.44 7.65 9.91821 8.19375 9.05905 8.19375ZM19.7115 16.9738H17.1498V12.64C17.1498 11.6313 16.7782 10.9462 15.8519 10.9462C15.1443 10.9462 14.7239 11.41 14.5381 11.8563C14.4696 12.015 14.4525 12.24 14.4525 12.4638V16.9725H11.8895V11.6475C11.8895 10.6713 11.8566 9.855 11.8223 9.1525H14.0479L14.1652 10.2388H14.2166C14.5539 9.72875 15.3801 8.97625 16.7624 8.97625C18.4478 8.97625 19.7115 10.0475 19.7115 12.35V16.9738Z" fill="#BFD2F8"/>
</svg>
