<svg width="18" height="15" viewBox="0 0 18 15" fill="none" xmlns="http://www.w3.org/2000/svg">
<path d="M15.8649 1.50364C14.9707 0.653189 13.7854 0.134124 12.523 0.0402036C11.2607 -0.0537164 10.0045 0.283702 8.9815 0.99151C7.90821 0.234227 6.57231 -0.109161 5.24281 0.030495C3.91331 0.170151 2.68897 0.782479 1.81634 1.74417C0.943717 2.70586 0.487621 3.94548 0.539903 5.21339C0.592186 6.48131 1.14896 7.68335 2.09811 8.57744L7.33657 13.5547C7.77524 13.9642 8.36603 14.1938 8.9815 14.1938C9.59697 14.1938 10.1878 13.9642 10.6264 13.5547L15.8649 8.57744C16.8498 7.63741 17.4026 6.36589 17.4026 5.04054C17.4026 3.71518 16.8498 2.44367 15.8649 1.50364V1.50364ZM14.6755 7.47316L9.43702 12.4424C9.37741 12.4995 9.30646 12.5448 9.22827 12.5758C9.15009 12.6067 9.06621 12.6226 8.9815 12.6226C8.89679 12.6226 8.81291 12.6067 8.73473 12.5758C8.65654 12.5448 8.58559 12.4995 8.52598 12.4424L3.28752 7.44915C2.62597 6.80766 2.25553 5.94594 2.25553 5.04854C2.25553 4.15114 2.62597 3.28942 3.28752 2.64793C3.96165 2.01656 4.87085 1.66254 5.81818 1.66254C6.76551 1.66254 7.67471 2.01656 8.34884 2.64793C8.42726 2.72293 8.52055 2.78246 8.62335 2.82309C8.72614 2.86371 8.8364 2.88463 8.94776 2.88463C9.05912 2.88463 9.16937 2.86371 9.27217 2.82309C9.37496 2.78246 9.46826 2.72293 9.54668 2.64793C10.2208 2.01656 11.13 1.66254 12.0773 1.66254C13.0247 1.66254 13.9339 2.01656 14.608 2.64793C15.2786 3.28101 15.6612 4.13806 15.6739 5.03549C15.6865 5.93291 15.3281 6.79933 14.6755 7.44915V7.47316Z" fill="#E2315C"/>
</svg>
