<svg width="26" height="25" viewBox="0 0 26 25" fill="none" xmlns="http://www.w3.org/2000/svg">
<path d="M18.3559 8.6282C18.2461 8.35851 18.078 8.11363 17.8624 7.90931C17.6468 7.705 17.3885 7.5458 17.104 7.44195C16.7124 7.30436 16.2988 7.23163 15.8812 7.22695C15.1868 7.19695 14.9786 7.18945 13.2194 7.18945C11.4603 7.18945 11.2521 7.19695 10.5576 7.22695C10.1396 7.23149 9.7255 7.30422 9.33347 7.44195C9.04917 7.54608 8.79102 7.70554 8.57564 7.91007C8.36026 8.1146 8.19243 8.35965 8.08296 8.62945C7.93791 9.00095 7.86125 9.39332 7.85631 9.78945C7.82469 10.4482 7.81678 10.6457 7.81678 12.3145C7.81678 13.9832 7.82469 14.1807 7.85631 14.8394C7.86109 15.236 7.93776 15.6288 8.08296 16.0007C8.19273 16.2704 8.36083 16.5153 8.57644 16.7196C8.79204 16.9239 9.05037 17.0831 9.33479 17.187C9.72641 17.3245 10.14 17.3973 10.5576 17.402C11.2521 17.4319 11.4603 17.4382 13.2194 17.4382C14.9786 17.4382 15.1868 17.4319 15.8812 17.4007C16.2992 17.3966 16.7132 17.3243 17.1054 17.187C17.3897 17.0828 17.6478 16.9234 17.8632 16.7188C18.0786 16.5143 18.2464 16.2692 18.3559 15.9995C18.5009 15.628 18.5776 15.2356 18.5825 14.8394C18.6141 14.1807 18.6207 13.9832 18.6207 12.3145C18.6207 10.6457 18.6141 10.4482 18.5812 9.78945C18.5768 9.39297 18.5006 9.00016 18.3559 8.6282ZM13.2194 15.5245C12.5501 15.5245 11.8959 15.3362 11.3394 14.9835C10.7829 14.6307 10.3492 14.1294 10.0931 13.5429C9.83698 12.9563 9.76997 12.3109 9.90054 11.6882C10.0311 11.0655 10.3534 10.4936 10.8266 10.0446C11.2999 9.59571 11.9028 9.28999 12.5592 9.16613C13.2157 9.04227 13.896 9.10584 14.5144 9.3488C15.1327 9.59176 15.6612 10.0032 16.033 10.5311C16.4048 11.059 16.6033 11.6796 16.6033 12.3145C16.6033 13.1658 16.2468 13.9823 15.6122 14.5843C14.9776 15.1863 14.1169 15.5245 13.2194 15.5245ZM16.7364 9.7282C16.58 9.7282 16.4272 9.68421 16.2971 9.6018C16.1671 9.51939 16.0658 9.40226 16.0059 9.26521C15.9461 9.12817 15.9305 8.97737 15.961 8.83188C15.9915 8.6864 16.0668 8.55276 16.1773 8.44787C16.2879 8.34298 16.4288 8.27155 16.5822 8.24261C16.7355 8.21367 16.8945 8.22853 17.039 8.28529C17.1834 8.34206 17.3069 8.43819 17.3938 8.56152C17.4807 8.68486 17.527 8.82987 17.527 8.9782C17.527 9.17711 17.4437 9.36788 17.2955 9.50853C17.1472 9.64918 16.9461 9.7282 16.7364 9.7282ZM15.416 12.3145C15.416 12.7266 15.2872 13.1294 15.0458 13.4721C14.8045 13.8148 14.4614 14.0819 14.06 14.2396C13.6586 14.3973 13.217 14.4386 12.7909 14.3582C12.3648 14.2778 11.9734 14.0793 11.6662 13.7879C11.359 13.4965 11.1497 13.1252 11.065 12.721C10.9802 12.3168 11.0237 11.8978 11.19 11.517C11.3562 11.1363 11.6378 10.8108 11.999 10.5819C12.3603 10.3529 12.785 10.2307 13.2194 10.2307C13.802 10.2307 14.3607 10.4502 14.7727 10.841C15.1846 11.2318 15.416 11.7618 15.416 12.3145ZM13.2194 0.314453C10.7175 0.314453 8.2717 1.01824 6.19141 2.33682C4.11112 3.65539 2.48972 5.52954 1.53227 7.72225C0.574817 9.91496 0.324303 12.3278 0.812409 14.6555C1.30052 16.9833 2.50532 19.1215 4.27446 20.7997C6.04361 22.478 8.29763 23.6208 10.7515 24.0839C13.2054 24.5469 15.7489 24.3093 18.0604 23.401C20.3719 22.4928 22.3476 20.9547 23.7376 18.9813C25.1276 17.0079 25.8695 14.6878 25.8695 12.3145C25.8695 9.13185 24.5367 6.07961 22.1644 3.82917C19.792 1.57873 16.5744 0.314453 13.2194 0.314453V0.314453ZM19.7685 14.8907C19.7573 15.4094 19.6535 15.9225 19.4614 16.4082C19.2922 16.8233 19.0334 17.2003 18.7017 17.515C18.3699 17.8297 17.9725 18.0752 17.5349 18.2357C17.0233 18.4177 16.4829 18.5162 15.9365 18.5269C15.2329 18.5569 15.0089 18.5644 13.2194 18.5644C11.43 18.5644 11.2059 18.5569 10.5023 18.5269C9.95597 18.5162 9.41552 18.4177 8.90389 18.2357C8.46631 18.0752 8.06891 17.8297 7.73715 17.515C7.4054 17.2003 7.14662 16.8233 6.97739 16.4082C6.78548 15.9229 6.68167 15.4102 6.67037 14.8919C6.63874 14.2245 6.63083 14.012 6.63083 12.3145C6.63083 10.617 6.63874 10.4045 6.67037 9.73695C6.68125 9.21878 6.78462 8.70611 6.97608 8.2207C7.14529 7.80525 7.40421 7.42795 7.7362 7.11302C8.0682 6.79808 8.46594 6.55247 8.90389 6.39195C9.4156 6.21033 9.95604 6.11228 10.5023 6.10195C11.2059 6.07195 11.43 6.06445 13.2194 6.06445C15.0089 6.06445 15.2329 6.07195 15.9365 6.10195C16.4828 6.11228 17.0232 6.21033 17.5349 6.39195C17.9726 6.55262 18.3701 6.7983 18.7019 7.11322C19.0336 7.42815 19.2924 7.80537 19.4614 8.2207C19.6533 8.70603 19.7572 9.21871 19.7685 9.73695C19.8001 10.4045 19.808 10.617 19.808 12.3145C19.808 14.012 19.8001 14.2245 19.7685 14.8919V14.8907Z" fill="#BFD2F8"/>
</svg>
