<svg width="18" height="15" viewBox="0 0 18 15" fill="none" xmlns="http://www.w3.org/2000/svg">
<path d="M16.2764 1.50364C15.3822 0.653189 14.1968 0.134124 12.9345 0.0402036C11.6721 -0.0537164 10.416 0.283702 9.39297 0.99151C8.31968 0.234227 6.98378 -0.109161 5.65428 0.030495C4.32478 0.170151 3.10044 0.782479 2.22781 1.74417C1.35519 2.70586 0.899089 3.94548 0.951372 5.21339C1.00365 6.48131 1.56043 7.68335 2.50958 8.57744L7.74804 13.5547C8.1867 13.9642 8.7775 14.1938 9.39297 14.1938C10.0084 14.1938 10.5992 13.9642 11.0379 13.5547L16.2764 8.57744C17.2613 7.63741 17.8141 6.36589 17.8141 5.04054C17.8141 3.71518 17.2613 2.44367 16.2764 1.50364V1.50364ZM15.0869 7.47316L9.84849 12.4424C9.78888 12.4995 9.71793 12.5448 9.63974 12.5758C9.56156 12.6067 9.47768 12.6226 9.39297 12.6226C9.30826 12.6226 9.22438 12.6067 9.1462 12.5758C9.06801 12.5448 8.99706 12.4995 8.93745 12.4424L3.69899 7.44915C3.03744 6.80766 2.667 5.94594 2.667 5.04854C2.667 4.15114 3.03744 3.28942 3.69899 2.64793C4.37312 2.01656 5.28231 1.66254 6.22965 1.66254C7.17698 1.66254 8.08618 2.01656 8.7603 2.64793C8.83872 2.72293 8.93202 2.78246 9.03482 2.82309C9.13761 2.86371 9.24787 2.88463 9.35923 2.88463C9.47059 2.88463 9.58084 2.86371 9.68364 2.82309C9.78643 2.78246 9.87973 2.72293 9.95815 2.64793C10.6323 2.01656 11.5415 1.66254 12.4888 1.66254C13.4361 1.66254 14.3453 2.01656 15.0195 2.64793C15.6901 3.28101 16.0727 4.13806 16.0853 5.03549C16.0979 5.93291 15.7396 6.79933 15.0869 7.44915V7.47316Z" fill="#E2315C"/>
</svg>
