<svg width="60" height="50" viewBox="0 0 60 50" fill="none" xmlns="http://www.w3.org/2000/svg">
<path d="M0 50V27.2727C0 25.9273 0.284445 24.4939 0.853333 22.9727C1.42222 21.4515 2.24889 20.3091 3.33333 19.5455V9.09091C3.33333 6.52727 3.97444 4.37121 5.25667 2.62273C6.53889 0.874243 8.12 0 10 0H25C26.1489 0 27.13 0.322726 27.9433 0.968181C28.7544 1.61061 29.44 2.5 30 3.63636C30.56 2.5 31.2456 1.61061 32.0567 0.968181C32.87 0.322726 33.8511 0 35 0H50C51.88 0 53.4611 0.874243 54.7433 2.62273C56.0256 4.37121 56.6667 6.52727 56.6667 9.09091V19.5455C57.7533 20.3091 58.58 21.4515 59.1467 22.9727C59.7156 24.4939 60 25.9273 60 27.2727V50H56.6667V40.9091H3.33333V50H0ZM31.6667 18.1818H53.3333V9.09091C53.3333 7.80303 53.0133 6.72424 52.3733 5.85455C51.7333 4.98485 50.9422 4.54848 50 4.54545H35C34.0556 4.54545 33.2644 4.98182 32.6267 5.85455C31.9889 6.72727 31.6689 7.80606 31.6667 9.09091V18.1818ZM6.66667 18.1818H28.3333V9.09091C28.3333 7.80303 28.0133 6.72424 27.3733 5.85455C26.7333 4.98485 25.9422 4.54848 25 4.54545H10C9.05556 4.54545 8.26444 4.98182 7.62667 5.85455C6.98889 6.72727 6.66889 7.80606 6.66667 9.09091V18.1818ZM3.33333 36.3636H56.6667V27.2727C56.6667 25.9848 56.3467 24.9061 55.7067 24.0364C55.0667 23.1667 54.2756 22.7303 53.3333 22.7273H6.66667C5.72222 22.7273 4.93111 23.1636 4.29333 24.0364C3.65556 24.9091 3.33556 25.9879 3.33333 27.2727V36.3636Z" fill="#1F2B6C"/>
</svg>
