<svg width="26" height="24" viewBox="0 0 26 24" fill="none" xmlns="http://www.w3.org/2000/svg">
<path d="M18.3559 8.31375C18.2461 8.04406 18.078 7.79917 17.8624 7.59486C17.6468 7.39055 17.3885 7.23134 17.104 7.1275C16.7124 6.98991 16.2988 6.91718 15.8812 6.9125C15.1868 6.8825 14.9786 6.875 13.2194 6.875C11.4603 6.875 11.2521 6.8825 10.5576 6.9125C10.1396 6.91704 9.7255 6.98976 9.33347 7.1275C9.04917 7.23163 8.79102 7.39109 8.57564 7.59562C8.36026 7.80015 8.19243 8.0452 8.08296 8.315C7.93791 8.68649 7.86125 9.07887 7.85631 9.475C7.82469 10.1337 7.81678 10.3312 7.81678 12C7.81678 13.6687 7.82469 13.8662 7.85631 14.525C7.86109 14.9215 7.93776 15.3144 8.08296 15.6862C8.19273 15.9559 8.36083 16.2008 8.57644 16.4051C8.79204 16.6094 9.05037 16.7687 9.33479 16.8725C9.72641 17.0101 10.14 17.0828 10.5576 17.0875C11.2521 17.1175 11.4603 17.1237 13.2194 17.1237C14.9786 17.1237 15.1868 17.1175 15.8812 17.0862C16.2992 17.0821 16.7132 17.0098 17.1054 16.8725C17.3897 16.7684 17.6478 16.6089 17.8632 16.4044C18.0786 16.1999 18.2464 15.9548 18.3559 15.685C18.5009 15.3135 18.5776 14.9211 18.5825 14.525C18.6141 13.8662 18.6207 13.6687 18.6207 12C18.6207 10.3312 18.6141 10.1337 18.5812 9.475C18.5768 9.07852 18.5006 8.68571 18.3559 8.31375ZM13.2194 15.21C12.5501 15.21 11.8959 15.0217 11.3394 14.669C10.7829 14.3163 10.3492 13.815 10.0931 13.2284C9.83698 12.6419 9.76997 11.9964 9.90054 11.3738C10.0311 10.7511 10.3534 10.1791 10.8266 9.73019C11.2999 9.28126 11.9028 8.97554 12.5592 8.85168C13.2157 8.72782 13.896 8.79139 14.5144 9.03435C15.1327 9.2773 15.6612 9.68874 16.033 10.2166C16.4048 10.7445 16.6033 11.3651 16.6033 12C16.6033 12.8513 16.2468 13.6678 15.6122 14.2698C14.9776 14.8718 14.1169 15.21 13.2194 15.21ZM16.7364 9.41375C16.58 9.41375 16.4272 9.36976 16.2971 9.28735C16.1671 9.20494 16.0658 9.08781 16.0059 8.95076C15.9461 8.81372 15.9305 8.66292 15.961 8.51743C15.9915 8.37194 16.0668 8.23831 16.1773 8.13342C16.2879 8.02853 16.4288 7.9571 16.5822 7.92816C16.7355 7.89922 16.8945 7.91407 17.039 7.97084C17.1834 8.0276 17.3069 8.12373 17.3938 8.24707C17.4807 8.37041 17.527 8.51541 17.527 8.66375C17.527 8.86266 17.4437 9.05343 17.2955 9.19408C17.1472 9.33473 16.9461 9.41375 16.7364 9.41375ZM15.416 12C15.416 12.4121 15.2872 12.815 15.0458 13.1577C14.8045 13.5003 14.4614 13.7674 14.06 13.9251C13.6586 14.0828 13.217 14.1241 12.7909 14.0437C12.3648 13.9633 11.9734 13.7648 11.6662 13.4734C11.359 13.182 11.1497 12.8107 11.065 12.4065C10.9802 12.0023 11.0237 11.5833 11.19 11.2026C11.3562 10.8218 11.6378 10.4964 11.999 10.2674C12.3603 10.0385 12.785 9.91625 13.2194 9.91625C13.802 9.91625 14.3607 10.1358 14.7727 10.5266C15.1846 10.9173 15.416 11.4474 15.416 12ZM13.2194 0C10.7175 0 8.2717 0.703788 6.19141 2.02236C4.11112 3.34094 2.48972 5.21508 1.53227 7.4078C0.574817 9.60051 0.324303 12.0133 0.812409 14.3411C1.30052 16.6689 2.50532 18.807 4.27446 20.4853C6.04361 22.1635 8.29763 23.3064 10.7515 23.7694C13.2054 24.2324 15.7489 23.9948 18.0604 23.0865C20.3719 22.1783 22.3476 20.6402 23.7376 18.6668C25.1276 16.6935 25.8695 14.3734 25.8695 12C25.8695 8.8174 24.5367 5.76515 22.1644 3.51472C19.792 1.26428 16.5744 0 13.2194 0V0ZM19.7685 14.5762C19.7573 15.0949 19.6535 15.608 19.4614 16.0937C19.2922 16.5088 19.0334 16.8858 18.7017 17.2005C18.3699 17.5152 17.9725 17.7607 17.5349 17.9212C17.0233 18.1033 16.4829 18.2018 15.9365 18.2125C15.2329 18.2425 15.0089 18.25 13.2194 18.25C11.43 18.25 11.2059 18.2425 10.5023 18.2125C9.95597 18.2018 9.41552 18.1033 8.90389 17.9212C8.46631 17.7607 8.06891 17.5152 7.73715 17.2005C7.4054 16.8858 7.14662 16.5088 6.97739 16.0937C6.78548 15.6084 6.68167 15.0957 6.67037 14.5775C6.63874 13.91 6.63083 13.6975 6.63083 12C6.63083 10.3025 6.63874 10.09 6.67037 9.4225C6.68125 8.90433 6.78462 8.39165 6.97608 7.90625C7.14529 7.4908 7.40421 7.1135 7.7362 6.79856C8.0682 6.48363 8.46594 6.23802 8.90389 6.0775C9.4156 5.89588 9.95604 5.79782 10.5023 5.7875C11.2059 5.7575 11.43 5.75 13.2194 5.75C15.0089 5.75 15.2329 5.7575 15.9365 5.7875C16.4828 5.79782 17.0232 5.89588 17.5349 6.0775C17.9726 6.23817 18.3701 6.48384 18.7019 6.79877C19.0336 7.1137 19.2924 7.49092 19.4614 7.90625C19.6533 8.39158 19.7572 8.90426 19.7685 9.4225C19.8001 10.09 19.808 10.3025 19.808 12C19.808 13.6975 19.8001 13.91 19.7685 14.5775V14.5762Z" fill="#BFD2F8"/>
</svg>
